<svg xmlns="http://www.w3.org/2000/svg" viewBox="0 0 128 128" role="img" aria-label="Meal planner icon">
  <defs>
    <linearGradient id="plate" x1="0" y1="0" x2="0" y2="1">
      <stop offset="0" stop-color="#e5f7ef"/>
      <stop offset="1" stop-color="#c8f0de"/>
    </linearGradient>
  </defs>
  <rect width="128" height="128" rx="24" fill="#0f172a"/>
  <circle cx="64" cy="66" r="34" fill="url(#plate)"/>
  <circle cx="64" cy="66" r="22" fill="#ffffff" opacity="0.85"/>
  <rect x="34" y="24" width="10" height="50" rx="4" fill="#e2e8f0"/>
  <rect x="38" y="18" width="2" height="10" fill="#e2e8f0"/>
  <rect x="41" y="18" width="2" height="10" fill="#e2e8f0"/>
  <rect x="44" y="18" width="2" height="10" fill="#e2e8f0"/>
  <rect x="86" y="24" width="10" height="50" rx="4" fill="#e2e8f0"/>
  <path d="M78 22a6 6 0 0 1 6-6h16a6 6 0 0 1 6 6v18a6 6 0 0 1-6 6H84a6 6 0 0 1-6-6z" fill="#22c55e"/>
  <path d="M88 33l4 4 8-10" fill="none" stroke="#ffffff" stroke-width="4" stroke-linecap="round" stroke-linejoin="round"/>
</svg>
